<svg xmlns="http://www.w3.org/2000/svg" width="256" height="256" viewBox="0 0 100 100"><rect width="100" height="100" rx="20" fill="#00cb58"></rect><path fill="#fff" d="M47.56 53.94Q46.58 52.46 45.90 51.76Q45.22 51.07 44.28 50.70Q43.33 50.33 41.69 50.25L41.69 50.25L39.11 50.08L39.11 65.87Q39.11 68.83 39.62 70.22Q40.14 71.62 41.02 72.07Q41.90 72.52 43.66 72.80L43.66 72.80Q44.93 73.01 45.92 73.26Q46.90 73.50 47.97 74.04L47.97 74.04L47.89 76.17L21.92 76.17L21.84 74.04Q22.95 73.42 23.91 73.15Q24.88 72.89 26.15 72.68L26.15 72.68Q27.79 72.44 28.59 71.96Q29.39 71.49 29.84 69.89Q30.29 68.29 30.29 64.81L30.29 64.81L30.29 33.72Q30.29 30.80 29.80 29.35Q29.31 27.89 28.38 27.34Q27.46 26.79 25.49 26.17L25.49 26.17Q23.40 25.60 21.84 24.90L21.84 24.90L21.92 22.77L40.83 22.77Q48.50 22.77 54.25 23.46Q59.99 24.16 64.52 27.15Q69.05 30.15 69.05 36.38L69.05 36.38Q69.05 40.24 66.90 43.05Q64.75 45.86 61.36 47.46Q57.98 49.06 54.12 49.63L54.12 49.63Q54.61 50.29 59.00 56.44L59.00 56.44Q62.24 61.03 64.52 64.11Q66.80 67.19 69.05 69.89L69.05 69.89Q70.41 71.33 71.47 72.15Q72.54 72.97 74.14 73.46Q75.74 73.95 78.16 73.95L78.16 73.95L78.16 76.25Q74.10 77.23 70.94 77.23L70.94 77.23Q66.59 77.23 62.96 74.57Q59.33 71.90 56.69 68.25Q54.04 64.60 50.64 58.94L50.64 58.94Q48.63 55.50 47.56 53.94L47.56 53.94ZM39.11 47.33L41.16 47.33Q46.41 47.33 50.23 46.72Q54.04 46.10 56.77 43.81Q59.50 41.51 59.50 36.88L59.50 36.88Q59.50 31.79 56.56 29.37Q53.63 26.95 49.69 26.40Q45.75 25.84 40.01 25.84L40.01 25.84L39.11 25.84L39.11 47.33Z"></path></svg>